<?xml version="1.0" encoding="UTF-8" standalone="no"?><!DOCTYPE svg PUBLIC "-//W3C//DTD SVG 1.1//EN" "http://www.w3.org/Graphics/SVG/1.1/DTD/svg11.dtd"><svg width="100%" height="100%" viewBox="0 0 619 98" version="1.1" xmlns="http://www.w3.org/2000/svg" xmlns:xlink="http://www.w3.org/1999/xlink" xml:space="preserve" xmlns:serif="http://www.serif.com/" style="fill-rule:evenodd;clip-rule:evenodd;stroke-linejoin:round;stroke-miterlimit:10;"><rect id="Artboard1" x="0" y="0" width="618.811" height="97.856" style="fill:none;"/><g><clipPath id="_clip1"><rect x="136.152" y="49.297" width="475.602" height="4.473" clip-rule="nonzero"/></clipPath><g clip-path="url(#_clip1)"><clipPath id="_clip2"><path d="M136.152,-31.027l0.848,-0l0,84.797l-0.848,-0l-0,-84.797Z" clip-rule="nonzero"/></clipPath><g clip-path="url(#_clip2)"><path d="M136.234,53.773l-0,-84.8" style="fill:none;fill-rule:nonzero;stroke:#ebebeb;stroke-width:0.53px;"/></g><clipPath id="_clip3"><path d="M218,-31.027l2,-0l0,84.797l-2,-0l0,-84.797Z" clip-rule="nonzero"/></clipPath><g clip-path="url(#_clip3)"><path d="M219.062,53.773l0,-84.8" style="fill:none;fill-rule:nonzero;stroke:#ebebeb;stroke-width:0.53px;"/></g><clipPath id="_clip4"><path d="M301,-31.027l2,-0l0,84.797l-2,-0l0,-84.797Z" clip-rule="nonzero"/></clipPath><g clip-path="url(#_clip4)"><path d="M301.891,53.773l-0,-84.8" style="fill:none;fill-rule:nonzero;stroke:#ebebeb;stroke-width:0.53px;"/></g><clipPath id="_clip5"><path d="M384,-31.027l1,-0l0,84.797l-1,-0l0,-84.797Z" clip-rule="nonzero"/></clipPath><g clip-path="url(#_clip5)"><path d="M384.719,53.773l0,-84.8" style="fill:none;fill-rule:nonzero;stroke:#ebebeb;stroke-width:0.53px;"/></g><clipPath id="_clip6"><path d="M467,-31.027l1,-0l0,84.797l-1,-0l0,-84.797Z" clip-rule="nonzero"/></clipPath><g clip-path="url(#_clip6)"><path d="M467.547,53.773l0,-84.8" style="fill:none;fill-rule:nonzero;stroke:#ebebeb;stroke-width:0.53px;"/></g><clipPath id="_clip7"><path d="M550,-31.027l1,-0l0,84.797l-1,-0l0,-84.797Z" clip-rule="nonzero"/></clipPath><g clip-path="url(#_clip7)"><path d="M550.379,53.773l0,-84.8" style="fill:none;fill-rule:nonzero;stroke:#ebebeb;stroke-width:0.53px;"/></g><clipPath id="_clip8"><rect x="136.152" y="43" width="475.602" height="2" clip-rule="nonzero"/></clipPath><g clip-path="url(#_clip8)"><path d="M136.152,43.988l475.602,-0" style="fill:none;fill-rule:nonzero;stroke:#ebebeb;stroke-width:1.07px;"/></g><clipPath id="_clip9"><rect x="136.152" y="27" width="475.602" height="2" clip-rule="nonzero"/></clipPath><g clip-path="url(#_clip9)"><path d="M136.152,27.68l475.602,0" style="fill:none;fill-rule:nonzero;stroke:#ebebeb;stroke-width:1.07px;"/></g><clipPath id="_clip10"><rect x="136.152" y="10" width="475.602" height="2" clip-rule="nonzero"/></clipPath><g clip-path="url(#_clip10)"><path d="M136.152,11.371l475.602,-0" style="fill:none;fill-rule:nonzero;stroke:#ebebeb;stroke-width:1.07px;"/></g><clipPath id="_clip11"><path d="M177,-31.027l2,-0l-0,84.797l-2,-0l-0,-84.797Z" clip-rule="nonzero"/></clipPath><g clip-path="url(#_clip11)"><path d="M177.648,53.773l0,-84.8" style="fill:none;fill-rule:nonzero;stroke:#ebebeb;stroke-width:1.07px;"/></g><clipPath id="_clip12"><path d="M259,-31.027l3,-0l0,84.797l-3,-0l0,-84.797Z" clip-rule="nonzero"/></clipPath><g clip-path="url(#_clip12)"><path d="M260.477,53.773l-0,-84.8" style="fill:none;fill-rule:nonzero;stroke:#ebebeb;stroke-width:1.07px;"/></g><clipPath id="_clip13"><path d="M342,-31.027l2,-0l0,84.797l-2,-0l0,-84.797Z" clip-rule="nonzero"/></clipPath><g clip-path="url(#_clip13)"><path d="M343.305,53.773l0,-84.8" style="fill:none;fill-rule:nonzero;stroke:#ebebeb;stroke-width:1.07px;"/></g><clipPath id="_clip14"><path d="M425,-31.027l2,-0l0,84.797l-2,-0l0,-84.797Z" clip-rule="nonzero"/></clipPath><g clip-path="url(#_clip14)"><path d="M426.133,53.773l0,-84.8" style="fill:none;fill-rule:nonzero;stroke:#ebebeb;stroke-width:1.07px;"/></g><clipPath id="_clip15"><path d="M508,-31.027l2,-0l0,84.797l-2,-0l0,-84.797Z" clip-rule="nonzero"/></clipPath><g clip-path="url(#_clip15)"><path d="M508.965,53.773l-0,-84.8" style="fill:none;fill-rule:nonzero;stroke:#ebebeb;stroke-width:1.07px;"/></g><clipPath id="_clip16"><path d="M591,-31.027l2,-0l0,84.797l-2,-0l0,-84.797Z" clip-rule="nonzero"/></clipPath><g clip-path="url(#_clip16)"><path d="M591.793,53.773l0,-84.8" style="fill:none;fill-rule:nonzero;stroke:#ebebeb;stroke-width:1.07px;"/></g><path d="M521.223,45.211l17.89,-0" style="fill:none;fill-rule:nonzero;stroke:#7f7f7f;stroke-width:1.07px;"/><path d="M572.492,28.902l17.645,-0" style="fill:none;fill-rule:nonzero;stroke:#7f7f7f;stroke-width:1.07px;"/><path d="M361.609,12.594l15.989,-0" style="fill:none;fill-rule:nonzero;stroke:#7f7f7f;stroke-width:1.07px;"/><path d="M489.582,42.766l18.469,-0" style="fill:none;fill-rule:nonzero;stroke:#000;stroke-width:1.07px;"/><path d="M530.168,26.457l15.652,-0" style="fill:none;fill-rule:nonzero;stroke:#000;stroke-width:1.07px;"/><path d="M412.301,10.148l14.414,0" style="fill:none;fill-rule:nonzero;stroke:#000;stroke-width:1.07px;"/><rect x="527.316" y="42.691" width="5.039" height="5.039" style="fill:none;stroke:#7f7f7f;stroke-width:1.42px;stroke-linecap:round;"/><rect x="579" y="26.383" width="5.039" height="5.039" style="fill:none;stroke:#7f7f7f;stroke-width:1.42px;stroke-linecap:round;"/><rect x="367.457" y="10.074" width="5.039" height="5.039" style="fill:none;stroke:#7f7f7f;stroke-width:1.42px;stroke-linecap:round;"/><rect x="496.34" y="40.246" width="5.039" height="5.039" style="fill:none;stroke:#000;stroke-width:1.42px;stroke-linecap:round;"/><rect x="536.098" y="23.938" width="5.039" height="5.039" style="fill:none;stroke:#000;stroke-width:1.42px;stroke-linecap:round;"/><rect x="417.156" y="7.629" width="5.039" height="5.039" style="fill:none;stroke:#000;stroke-width:1.42px;stroke-linecap:round;"/><clipPath id="_clip17"><path d="M425,-29l2,0l0,82.77l-2,-0l0,-82.77Z" clip-rule="nonzero"/></clipPath><g clip-path="url(#_clip17)"><path d="M426.133,53.773l0,-84.8" style="fill:none;fill-rule:nonzero;stroke:#000;stroke-width:1.07px;stroke-dasharray:1.07,3.2;"/></g><rect x="136.152" y="-31.023" width="475.602" height="84.797" style="fill:none;stroke:#333;stroke-width:1.07px;stroke-linecap:round;"/></g></g><g><g><clipPath id="_clip18"><rect x="136.152" y="33.054" width="475.602" height="19.544" clip-rule="nonzero"/></clipPath><g clip-path="url(#_clip18)"><clipPath id="_clip19"><path d="M136.152,17.973l0.848,-0l0,84.797l-0.848,-0l-0,-84.797Z" clip-rule="nonzero"/></clipPath><g clip-path="url(#_clip19)"><path d="M136.234,102.773l-0,-84.8" style="fill:none;fill-rule:nonzero;stroke:#ebebeb;stroke-width:0.53px;"/></g><clipPath id="_clip20"><path d="M218,17.973l2,-0l0,84.797l-2,-0l0,-84.797Z" clip-rule="nonzero"/></clipPath><g clip-path="url(#_clip20)"><path d="M219.062,102.773l0,-84.8" style="fill:none;fill-rule:nonzero;stroke:#ebebeb;stroke-width:0.53px;"/></g><clipPath id="_clip21"><path d="M301,17.973l2,-0l0,84.797l-2,-0l0,-84.797Z" clip-rule="nonzero"/></clipPath><g clip-path="url(#_clip21)"><path d="M301.891,102.773l-0,-84.8" style="fill:none;fill-rule:nonzero;stroke:#ebebeb;stroke-width:0.53px;"/></g><clipPath id="_clip22"><path d="M384,17.973l1,-0l0,84.797l-1,-0l0,-84.797Z" clip-rule="nonzero"/></clipPath><g clip-path="url(#_clip22)"><path d="M384.719,102.773l0,-84.8" style="fill:none;fill-rule:nonzero;stroke:#ebebeb;stroke-width:0.53px;"/></g><clipPath id="_clip23"><path d="M467,17.973l1,-0l0,84.797l-1,-0l0,-84.797Z" clip-rule="nonzero"/></clipPath><g clip-path="url(#_clip23)"><path d="M467.547,102.773l0,-84.8" style="fill:none;fill-rule:nonzero;stroke:#ebebeb;stroke-width:0.53px;"/></g><clipPath id="_clip24"><path d="M550,17.973l1,-0l0,84.797l-1,-0l0,-84.797Z" clip-rule="nonzero"/></clipPath><g clip-path="url(#_clip24)"><path d="M550.379,102.773l0,-84.8" style="fill:none;fill-rule:nonzero;stroke:#ebebeb;stroke-width:0.53px;"/></g><clipPath id="_clip25"><rect x="136.152" y="92" width="475.602" height="2" clip-rule="nonzero"/></clipPath><g clip-path="url(#_clip25)"><path d="M136.152,92.988l475.602,-0" style="fill:none;fill-rule:nonzero;stroke:#ebebeb;stroke-width:1.07px;"/></g><clipPath id="_clip26"><rect x="136.152" y="76" width="475.602" height="2" clip-rule="nonzero"/></clipPath><g clip-path="url(#_clip26)"><path d="M136.152,76.68l475.602,0" style="fill:none;fill-rule:nonzero;stroke:#ebebeb;stroke-width:1.07px;"/></g><clipPath id="_clip27"><rect x="136.152" y="59" width="475.602" height="2" clip-rule="nonzero"/></clipPath><g clip-path="url(#_clip27)"><path d="M136.152,60.371l475.602,-0" style="fill:none;fill-rule:nonzero;stroke:#ebebeb;stroke-width:1.07px;"/></g><clipPath id="_clip28"><rect x="136.152" y="43" width="475.602" height="2" clip-rule="nonzero"/></clipPath><g clip-path="url(#_clip28)"><path d="M136.152,44.066l475.602,-0" style="fill:none;fill-rule:nonzero;stroke:#ebebeb;stroke-width:1.07px;"/></g><clipPath id="_clip29"><rect x="136.152" y="27" width="475.602" height="2" clip-rule="nonzero"/></clipPath><g clip-path="url(#_clip29)"><path d="M136.152,27.758l475.602,-0" style="fill:none;fill-rule:nonzero;stroke:#ebebeb;stroke-width:1.07px;"/></g><clipPath id="_clip30"><path d="M177,17.973l2,-0l-0,84.797l-2,-0l-0,-84.797Z" clip-rule="nonzero"/></clipPath><g clip-path="url(#_clip30)"><path d="M177.648,102.773l0,-84.8" style="fill:none;fill-rule:nonzero;stroke:#ebebeb;stroke-width:1.07px;"/></g><clipPath id="_clip31"><path d="M259,17.973l3,-0l0,84.797l-3,-0l0,-84.797Z" clip-rule="nonzero"/></clipPath><g clip-path="url(#_clip31)"><path d="M260.477,102.773l-0,-84.8" style="fill:none;fill-rule:nonzero;stroke:#ebebeb;stroke-width:1.07px;"/></g><clipPath id="_clip32"><path d="M342,17.973l2,-0l0,84.797l-2,-0l0,-84.797Z" clip-rule="nonzero"/></clipPath><g clip-path="url(#_clip32)"><path d="M343.305,102.773l0,-84.8" style="fill:none;fill-rule:nonzero;stroke:#ebebeb;stroke-width:1.07px;"/></g><clipPath id="_clip33"><path d="M425,17.973l2,-0l0,84.797l-2,-0l0,-84.797Z" clip-rule="nonzero"/></clipPath><g clip-path="url(#_clip33)"><path d="M426.133,102.773l0,-84.8" style="fill:none;fill-rule:nonzero;stroke:#ebebeb;stroke-width:1.07px;"/></g><clipPath id="_clip34"><path d="M508,17.973l2,-0l0,84.797l-2,-0l0,-84.797Z" clip-rule="nonzero"/></clipPath><g clip-path="url(#_clip34)"><path d="M508.965,102.773l-0,-84.8" style="fill:none;fill-rule:nonzero;stroke:#ebebeb;stroke-width:1.07px;"/></g><clipPath id="_clip35"><path d="M591,17.973l2,-0l0,84.797l-2,-0l0,-84.797Z" clip-rule="nonzero"/></clipPath><g clip-path="url(#_clip35)"><path d="M591.793,102.773l0,-84.8" style="fill:none;fill-rule:nonzero;stroke:#ebebeb;stroke-width:1.07px;"/></g><path d="M521.223,94.211l17.89,-0" style="fill:none;fill-rule:nonzero;stroke:#7f7f7f;stroke-width:1.07px;"/><path d="M408.41,28.98l12.34,-0" style="fill:none;fill-rule:nonzero;stroke:#7f7f7f;stroke-width:1.07px;"/><path d="M572.492,77.902l17.645,-0" style="fill:none;fill-rule:nonzero;stroke:#7f7f7f;stroke-width:1.07px;"/><path d="M361.609,61.594l15.989,-0" style="fill:none;fill-rule:nonzero;stroke:#7f7f7f;stroke-width:1.07px;"/><path d="M489.582,91.766l18.469,-0" style="fill:none;fill-rule:nonzero;stroke:#000;stroke-width:1.07px;"/><path d="M415.781,26.535l13.668,-0" style="fill:none;fill-rule:nonzero;stroke:#000;stroke-width:1.07px;"/><path d="M530.168,75.457l15.652,-0" style="fill:none;fill-rule:nonzero;stroke:#000;stroke-width:1.07px;"/><path d="M412.301,59.148l14.414,0" style="fill:none;fill-rule:nonzero;stroke:#000;stroke-width:1.07px;"/><path d="M505.898,44.066l16.399,-0" style="fill:none;fill-rule:nonzero;stroke:#000;stroke-width:1.07px;"/><rect x="527.316" y="91.691" width="5.039" height="5.039" style="fill:none;stroke:#7f7f7f;stroke-width:1.42px;stroke-linecap:round;"/><rect x="411.852" y="26.461" width="5.039" height="5.039" style="fill:none;stroke:#7f7f7f;stroke-width:1.42px;stroke-linecap:round;"/><rect x="579" y="75.383" width="5.039" height="5.039" style="fill:none;stroke:#7f7f7f;stroke-width:1.42px;stroke-linecap:round;"/><rect x="367.457" y="59.074" width="5.039" height="5.039" style="fill:none;stroke:#7f7f7f;stroke-width:1.42px;stroke-linecap:round;"/><rect x="496.34" y="89.246" width="5.039" height="5.039" style="fill:none;stroke:#000;stroke-width:1.42px;stroke-linecap:round;"/><rect x="420.219" y="24.016" width="5.039" height="5.039" style="fill:none;stroke:#000;stroke-width:1.42px;stroke-linecap:round;"/><rect x="536.098" y="72.938" width="5.039" height="5.039" style="fill:none;stroke:#000;stroke-width:1.42px;stroke-linecap:round;"/><rect x="417.156" y="56.629" width="5.039" height="5.039" style="fill:none;stroke:#000;stroke-width:1.42px;stroke-linecap:round;"/><rect x="511.164" y="41.547" width="5.039" height="5.039" style="fill:none;stroke:#000;stroke-width:1.42px;stroke-linecap:round;"/><clipPath id="_clip36"><path d="M425,20l2,0l0,82.77l-2,-0l0,-82.77Z" clip-rule="nonzero"/></clipPath><g clip-path="url(#_clip36)"><path d="M426.133,102.773l0,-84.8" style="fill:none;fill-rule:nonzero;stroke:#000;stroke-width:1.07px;stroke-dasharray:1.07,3.2;"/></g><rect x="136.152" y="17.977" width="475.602" height="84.797" style="fill:none;stroke:#333;stroke-width:1.07px;stroke-linecap:round;"/></g></g><g><clipPath id="_clip37"><rect x="136.152" y="24.845" width="475.602" height="7.415" clip-rule="nonzero"/></clipPath><g clip-path="url(#_clip37)"><clipPath id="_clip38"><path d="M136.152,27.973l0.848,-0l0,84.797l-0.848,-0l-0,-84.797Z" clip-rule="nonzero"/></clipPath><g clip-path="url(#_clip38)"><path d="M136.234,112.773l-0,-84.8" style="fill:none;fill-rule:nonzero;stroke:#ebebeb;stroke-width:0.53px;"/></g><clipPath id="_clip39"><path d="M218,27.973l2,-0l0,84.797l-2,-0l0,-84.797Z" clip-rule="nonzero"/></clipPath><g clip-path="url(#_clip39)"><path d="M219.062,112.773l0,-84.8" style="fill:none;fill-rule:nonzero;stroke:#ebebeb;stroke-width:0.53px;"/></g><clipPath id="_clip40"><path d="M301,27.973l2,-0l0,84.797l-2,-0l0,-84.797Z" clip-rule="nonzero"/></clipPath><g clip-path="url(#_clip40)"><path d="M301.891,112.773l-0,-84.8" style="fill:none;fill-rule:nonzero;stroke:#ebebeb;stroke-width:0.53px;"/></g><clipPath id="_clip41"><path d="M384,27.973l1,-0l0,84.797l-1,-0l0,-84.797Z" clip-rule="nonzero"/></clipPath><g clip-path="url(#_clip41)"><path d="M384.719,112.773l0,-84.8" style="fill:none;fill-rule:nonzero;stroke:#ebebeb;stroke-width:0.53px;"/></g><clipPath id="_clip42"><path d="M467,27.973l1,-0l0,84.797l-1,-0l0,-84.797Z" clip-rule="nonzero"/></clipPath><g clip-path="url(#_clip42)"><path d="M467.547,112.773l0,-84.8" style="fill:none;fill-rule:nonzero;stroke:#ebebeb;stroke-width:0.53px;"/></g><clipPath id="_clip43"><path d="M550,27.973l1,-0l0,84.797l-1,-0l0,-84.797Z" clip-rule="nonzero"/></clipPath><g clip-path="url(#_clip43)"><path d="M550.379,112.773l0,-84.8" style="fill:none;fill-rule:nonzero;stroke:#ebebeb;stroke-width:0.53px;"/></g><clipPath id="_clip44"><rect x="136.152" y="86" width="475.602" height="2" clip-rule="nonzero"/></clipPath><g clip-path="url(#_clip44)"><path d="M136.152,86.68l475.602,0" style="fill:none;fill-rule:nonzero;stroke:#ebebeb;stroke-width:1.07px;"/></g><clipPath id="_clip45"><rect x="136.152" y="69" width="475.602" height="2" clip-rule="nonzero"/></clipPath><g clip-path="url(#_clip45)"><path d="M136.152,70.371l475.602,-0" style="fill:none;fill-rule:nonzero;stroke:#ebebeb;stroke-width:1.07px;"/></g><clipPath id="_clip46"><rect x="136.152" y="53" width="475.602" height="2" clip-rule="nonzero"/></clipPath><g clip-path="url(#_clip46)"><path d="M136.152,54.066l475.602,-0" style="fill:none;fill-rule:nonzero;stroke:#ebebeb;stroke-width:1.07px;"/></g><clipPath id="_clip47"><rect x="136.152" y="37" width="475.602" height="2" clip-rule="nonzero"/></clipPath><g clip-path="url(#_clip47)"><path d="M136.152,37.758l475.602,-0" style="fill:none;fill-rule:nonzero;stroke:#ebebeb;stroke-width:1.07px;"/></g><clipPath id="_clip48"><path d="M177,27.973l2,-0l-0,84.797l-2,-0l-0,-84.797Z" clip-rule="nonzero"/></clipPath><g clip-path="url(#_clip48)"><path d="M177.648,112.773l0,-84.8" style="fill:none;fill-rule:nonzero;stroke:#ebebeb;stroke-width:1.07px;"/></g><clipPath id="_clip49"><path d="M259,27.973l3,-0l0,84.797l-3,-0l0,-84.797Z" clip-rule="nonzero"/></clipPath><g clip-path="url(#_clip49)"><path d="M260.477,112.773l-0,-84.8" style="fill:none;fill-rule:nonzero;stroke:#ebebeb;stroke-width:1.07px;"/></g><clipPath id="_clip50"><path d="M342,27.973l2,-0l0,84.797l-2,-0l0,-84.797Z" clip-rule="nonzero"/></clipPath><g clip-path="url(#_clip50)"><path d="M343.305,112.773l0,-84.8" style="fill:none;fill-rule:nonzero;stroke:#ebebeb;stroke-width:1.07px;"/></g><clipPath id="_clip51"><path d="M425,27.973l2,-0l0,84.797l-2,-0l0,-84.797Z" clip-rule="nonzero"/></clipPath><g clip-path="url(#_clip51)"><path d="M426.133,112.773l0,-84.8" style="fill:none;fill-rule:nonzero;stroke:#ebebeb;stroke-width:1.07px;"/></g><clipPath id="_clip52"><path d="M508,27.973l2,-0l0,84.797l-2,-0l0,-84.797Z" clip-rule="nonzero"/></clipPath><g clip-path="url(#_clip52)"><path d="M508.965,112.773l-0,-84.8" style="fill:none;fill-rule:nonzero;stroke:#ebebeb;stroke-width:1.07px;"/></g><clipPath id="_clip53"><path d="M591,27.973l2,-0l0,84.797l-2,-0l0,-84.797Z" clip-rule="nonzero"/></clipPath><g clip-path="url(#_clip53)"><path d="M591.793,112.773l0,-84.8" style="fill:none;fill-rule:nonzero;stroke:#ebebeb;stroke-width:1.07px;"/></g><path d="M408.41,38.98l12.34,-0" style="fill:none;fill-rule:nonzero;stroke:#7f7f7f;stroke-width:1.07px;"/><path d="M572.492,87.902l17.645,-0" style="fill:none;fill-rule:nonzero;stroke:#7f7f7f;stroke-width:1.07px;"/><path d="M361.609,71.594l15.989,-0" style="fill:none;fill-rule:nonzero;stroke:#7f7f7f;stroke-width:1.07px;"/><path d="M415.781,36.535l13.668,-0" style="fill:none;fill-rule:nonzero;stroke:#000;stroke-width:1.07px;"/><path d="M530.168,85.457l15.652,-0" style="fill:none;fill-rule:nonzero;stroke:#000;stroke-width:1.07px;"/><path d="M412.301,69.148l14.414,0" style="fill:none;fill-rule:nonzero;stroke:#000;stroke-width:1.07px;"/><path d="M505.898,54.066l16.399,-0" style="fill:none;fill-rule:nonzero;stroke:#000;stroke-width:1.07px;"/><rect x="411.852" y="36.461" width="5.039" height="5.039" style="fill:none;stroke:#7f7f7f;stroke-width:1.42px;stroke-linecap:round;"/><rect x="579" y="85.383" width="5.039" height="5.039" style="fill:none;stroke:#7f7f7f;stroke-width:1.42px;stroke-linecap:round;"/><rect x="367.457" y="69.074" width="5.039" height="5.039" style="fill:none;stroke:#7f7f7f;stroke-width:1.42px;stroke-linecap:round;"/><rect x="496.34" y="99.246" width="5.039" height="5.039" style="fill:none;stroke:#000;stroke-width:1.42px;stroke-linecap:round;"/><rect x="420.219" y="34.016" width="5.039" height="5.039" style="fill:none;stroke:#000;stroke-width:1.42px;stroke-linecap:round;"/><rect x="536.098" y="82.938" width="5.039" height="5.039" style="fill:none;stroke:#000;stroke-width:1.42px;stroke-linecap:round;"/><rect x="417.156" y="66.629" width="5.039" height="5.039" style="fill:none;stroke:#000;stroke-width:1.42px;stroke-linecap:round;"/><rect x="511.164" y="51.547" width="5.039" height="5.039" style="fill:none;stroke:#000;stroke-width:1.42px;stroke-linecap:round;"/><clipPath id="_clip54"><path d="M425,30l2,0l0,82.77l-2,-0l0,-82.77Z" clip-rule="nonzero"/></clipPath><g clip-path="url(#_clip54)"><path d="M426.133,112.773l0,-84.8" style="fill:none;fill-rule:nonzero;stroke:#000;stroke-width:1.07px;stroke-dasharray:1.07,3.2;"/></g><rect x="136.152" y="27.977" width="475.602" height="84.797" style="fill:none;stroke:#333;stroke-width:1.07px;stroke-linecap:round;"/></g></g></g><g><path d="M177.648,56.512l0,-2.739" style="fill:none;fill-rule:nonzero;stroke:#333;stroke-width:1.07px;"/><path d="M260.477,56.512l-0,-2.739" style="fill:none;fill-rule:nonzero;stroke:#333;stroke-width:1.07px;"/><path d="M343.305,56.512l0,-2.739" style="fill:none;fill-rule:nonzero;stroke:#333;stroke-width:1.07px;"/><path d="M426.133,56.512l0,-2.739" style="fill:none;fill-rule:nonzero;stroke:#333;stroke-width:1.07px;"/><path d="M508.965,56.512l-0,-2.739" style="fill:none;fill-rule:nonzero;stroke:#333;stroke-width:1.07px;"/><path d="M591.793,56.512l0,-2.739" style="fill:none;fill-rule:nonzero;stroke:#333;stroke-width:1.07px;"/></g><g><path d="M177.648,27.512l0,-2.739" style="fill:none;fill-rule:nonzero;stroke:#333;stroke-width:1.07px;"/><path d="M260.477,27.512l-0,-2.739" style="fill:none;fill-rule:nonzero;stroke:#333;stroke-width:1.07px;"/><path d="M343.305,27.512l0,-2.739" style="fill:none;fill-rule:nonzero;stroke:#333;stroke-width:1.07px;"/><path d="M426.133,27.512l0,-2.739" style="fill:none;fill-rule:nonzero;stroke:#333;stroke-width:1.07px;"/><path d="M508.965,27.512l-0,-2.739" style="fill:none;fill-rule:nonzero;stroke:#333;stroke-width:1.07px;"/><path d="M591.793,27.512l0,-2.739" style="fill:none;fill-rule:nonzero;stroke:#333;stroke-width:1.07px;"/></g><path d="M133.41,43.988l2.742,-0" style="fill:none;fill-rule:nonzero;stroke:#333;stroke-width:1.07px;"/><g><text x="173.648px" y="18.756px" style="font-family:'Roboto-Regular', 'Roboto';font-size:9.4px;fill:#4d4d4d;">-3	<tspan x="256.481px " y="18.756px ">-</tspan>2</text><text x="339.305px" y="18.756px" style="font-family:'Roboto-Regular', 'Roboto';font-size:9.4px;fill:#4d4d4d;">-1	<tspan x="423.632px " y="18.756px ">0</tspan></text><text x="506.465px" y="18.756px" style="font-family:'Roboto-Regular', 'Roboto';font-size:9.4px;fill:#4d4d4d;">1	<tspan x="589.297px " y="18.756px ">2</tspan></text></g><text x="7.219px" y="45.319px" style="font-family:'Roboto-Regular', 'Roboto';font-size:9px;fill:#4d4d4d;">Built infrastructure difference</text><text x="105.4px" y="18.077px" style="font-family:'Roboto-Regular', 'Roboto';font-size:9.4px;fill:#4d4d4d;">Linear effects</text><text x="110.484px" y="65.477px" style="font-family:'Roboto-Regular', 'Roboto';font-size:9.4px;fill:#4d4d4d;">Odds effects</text><g><text x="169.148px" y="66.756px" style="font-family:'Roboto-Regular', 'Roboto';font-size:9.4px;fill:#4d4d4d;">0.05	<tspan x="251.981px " y="66.756px ">0</tspan>.14</text><text x="334.805px" y="66.756px" style="font-family:'Roboto-Regular', 'Roboto';font-size:9.4px;fill:#4d4d4d;">0.37	<tspan x="423.635px " y="66.756px ">1</tspan></text><text x="502.965px" y="66.756px" style="font-family:'Roboto-Regular', 'Roboto';font-size:9.4px;fill:#4d4d4d;">2.7	<tspan x="585.797px " y="66.756px ">7</tspan>.4</text></g><text x="292.032px" y="88.221px" style="font-family:'Roboto-Regular', 'Roboto';font-size:11px;">Highest Posterior Density (HPD)</text></svg>