<svg width="4345" height="2557"
     xmlns="http://www.w3.org/2000/svg" xml:space="preserve" overflow="hidden">
  <rect x="2350" y="0" width="2000" height="2305" fill="rgba(100,100,100,0.4)"/>
  <g clip-path="url(#clip0)" transform="translate(-1544 -160)"><g clip-path="url(#clip1)"><g><path d="M1806.5 2094.57 5834.5 2094.57M1806.5 1718.56 5834.5 1718.56M1806.5 1341.54 5834.5 1341.54M1806.5 965.532 5834.5 965.532M1806.5 589.52 5834.5 589.52M1806.5 213.5 5834.5 213.5" stroke="#D9D9D9" stroke-width="3.4375" stroke-linecap="butt" stroke-linejoin="round" stroke-miterlimit="10" stroke-opacity="1" fill="none" fill-rule="nonzero"/></g><g><path d="M1806.5 2470.5 5834.5 2470.5" stroke="#D9D9D9" stroke-width="3.4375" stroke-linecap="butt" stroke-linejoin="round" stroke-miterlimit="10" stroke-opacity="1" fill="none" fill-rule="evenodd"/></g><g><path d="M1812 1723.06 1823.06 846.028 1833.06 773.025 1844.06 812.027 1855.06 988.032 1865.06 1502.05 1876.06 1625.05 1887.06 919.03 1897.06 819.027 1908.06 853.028 1919.06 857.028 1929.06 964.032 1940.06 1552.05 1951.06 1677.06 1961.06 1193.04 1972.06 873.029 1983.07 825.027 1993.07 866.028 2004.07 960.031 2015.07 1539.05 2025.07 1751.06 2036.07 984.032 2047.07 927.03 2057.07 1066.03 2068.07 878.029 2079.07 1024.03 2089.07 1575.05 2100.07 1704.06 2110.07 1039.03 2121.07 982.032 2132.07 951.031 2142.07 1030.03 2153.07 1065.03 2164.07 1737.06 2174.07 1691.06 2185.07 1082.04 2196.07 1033.03 2206.07 1025.03 2217.07 1055.03 2228.07 1141.04 2238.07 1628.05 2249.07 1746.06 2260.07 1234.04 2270.07 1191.04 2281.07 1210.04 2292.08 1225.04 2302.08 1320.04 2313.08 1701.06 2324.08 1813.06 2334.08 1381.05 2345.08 1313.04 2356.08 1326.04 2366.08 1738.06 2377.08 1601.05 2388.08 1716.06 2398.08 1819.06 2409.08 1351.04 2419.08 1277.04 2430.08 1227.04 2441.08 1250.04 2451.08 1264.04 2462.08 1651.05 2473.08 1742.06 2483.08 1192.04 2494.08 1358.04 2505.08 1086.04 2515.08 1087.04 2526.08 1126.04 2537.08 1594.05 2547.08 1697.06 2558.08 1055.03 2569.08 956.031 2579.08 893.029 2590.08 992.033 2601.09 946.031 2611.09 1500.05 2622.09 1917.06 2633.09 958.031 2643.09 1785.06 2654.09 1561.05 2665.09 839.028 2675.09 940.031 2686.09 1459.05 2697.09 1610.05 2707.09 841.028 2718.09 785.026 2728.09 776.025 2739.09 755.025 2750.09 800.026 2760.09 1762.06 2771.09 1620.05 2782.09 955.031 2792.09 1425.05 2803.09 795.026 2814.09 734.024 2824.09 787.026 2835.09 1435.05 2846.09 1583.05 2856.09 786.026 2867.09 711.023 2878.09 691.023 2888.09 704.023 2899.09 751.025 2910.1 1480.05 2920.1 1643.05 2931.1 767.025 2942.1 707.023 2952.1 954.031 2963.1 744.024 2974.1 781.026 2984.1 1496.05 2995.1 1597.05 3006.1 937.031 3016.1 684.022 3027.1 680.022 3037.1 729.024 3048.1 982.032 3059.1 1371.04 3069.1 1620.05 3080.1 872.029 3091.1 1224.04 3101.1 811.027 3112.1 764.025 3123.1 786.026 3133.1 1361.04 3144.1 1553.05 3155.1 799.026 3165.1 743.024 3176.1 731.024 3187.1 836.027 3197.1 1678.06 3208.11 1554.05 3219.11 1776.06 3229.11 937.031 3240.11 826.027 3251.11 795.026 3261.11 824.027 3272.11 964.032 3283.11 1555.05 3293.11 1767.06 3304.11 1007.03 3315.11 859.028 3325.11 924.03 3336.11 1154.04 3346.11 989.032 3357.11 1588.05 3368.11 1760.06 3378.11 944.031 3389.11 923.03 3400.11 918.03 3410.11 888.029 3421.11 1355.04 3432.11 1558.05 3442.11 1691.06 3453.11 902.03 3464.11 890.029 3474.11 921.03 3485.11 855.028 3496.11 884.029 3506.11 1470.05 3517.12 1660.05 3528.12 927.03 3538.12 941.031 3549.12 1576.05 3560.12 1667.05 3570.12 1636.05 3581.12 1773.06 3592.12 999.033 3602.12 947.031 3613.12 1038.03 3623.12 1024.03 3634.12 1064.03 3645.12 1494.05 3655.12 1628.05 3666.12 992.033 3677.12 927.03 3687.12 893.029 3698.12 961.031 3709.12 1315.04 3719.12 1640.05 3730.12 1809.06 3741.12 1425.05 3751.12 1676.05 3762.12 2082 3773.12 1983.07 3783.12 1627.05 3794.12 1784.06 3805.12 1877.06 3815.13 1524.05 3826.13 1679.06 3837.13 1430.05 3847.13 787.026 3858.13 773.025 3869.13 1160.04 3879.13 1358.04 3890.13 778.026 3901.13 706.023 3911.13 631.021 3922.13 647.021 3932.13 827.027 3943.13 1182.04 3954.13 1354.04 3964.13 795.026 3975.13 686.023 3986.13 641.021 3996.13 660.022 4007.13 758.025 4018.13 1209.04 4028.13 1419.05 4039.13 902.03 4050.13 664.022 4060.13 679.022 4071.13 845.028 4082.13 865.028 4092.13 1303.04 4103.13 1493.05 4114.13 987.032 4124.14 886.029 4135.14 906.03 4146.14 895.029 4156.14 1012.03 4167.14 1343.04 4178.14 1511.05 4188.14 1044.03 4199.14 990.032 4210.14 974.032 4220.14 978.032 4231.14 1054.03 4241.14 1408.05 4252.14 1560.05 4263.14 1259.04 4273.14 1140.04 4284.14 1119.04 4295.14 1133.04 4305.14 1180.04 4316.14 1450.05 4327.14 1605.05 4337.14 1273.04 4348.14 1218.04 4359.14 1225.04 4369.14 1240.04 4380.14 1245.04 4391.14 1533.05 4401.14 1603.05 4412.14 1243.04 4423.15 1237.04 4433.15 1150.04 4444.15 1187.04 4455.15 1219.04 4465.15 1451.05 4476.15 1615.05 4487.15 1185.04 4497.15 1086.04 4508.15 1061.03 4519.15 1099.04 4529.15 1131.04 4540.15 1688.06 4550.15 1534.05 4561.15 995.033 4572.15 907.03 4582.15 860.028 4593.15 849.028 4604.15 882.029 4614.15 1282.04 4625.15 1462.05 4636.15 1258.04 4646.15 836.027 4657.15 1433.05 4668.15 875.029 4678.15 1343.04 4689.15 1339.04 4700.15 1449.05 4710.15 791.026 4721.15 712.023 4732.16 679.022 4742.16 669.022 4753.16 877.029 4764.16 1175.04 4774.16 1341.04 4785.16 1066.03 4796.16 595.02 4806.16 541 4817.16 1227.04 4828.16 884.029 4838.16 1263.04 4849.16 1539.05 4859.16 558.018 4870.16 1028.03 4881.16 1198.04 4891.16 1345.04 4902.16 679.022 4913.16 675.022 4923.16 638.021 4934.16 631.021 4945.16 567.019 4955.16 1821.06 4966.16 1412.05 4977.16 1368.04 4987.16 638.021 4998.16 742.024 5009.16 681.022 5019.16 828.027 5030.17 1234.04 5041.17 1491.05 5051.17 858.028 5062.17 729.024 5073.17 767.025 5083.17 914.03 5094.17 686.023 5105.17 1115.04 5115.17 1442.05 5126.17 854.028 5136.17 772.025 5147.17 739.024 5158.17 728.024 5168.17 782.026 5179.17 1059.03 5190.17 1281.04 5200.17 931.031 5211.17 904.03 5222.17 1041.03 5232.17 913.03 5243.17 908.03 5254.17 1545.05 5264.17 1205.04 5275.17 951.031 5286.17 854.028 5296.17 787.026 5307.17 868.028 5318.17 772.025 5328.17 1145.04 5339.18 1232.04 5350.18 966.032 5360.18 833.027 5371.18 790.026 5382.18 776.025 5392.18 761.025 5403.18 1042.03 5414.18 1363.04 5424.18 815.027 5435.18 744.024 5445.18 719.024 5456.18 788.026 5467.18 991.033 5477.18 1491.05 5488.18 1151.04 5499.18 854.028 5509.18 811.027 5520.18 778.026 5531.18 829.027 5541.18 839.028 5552.18 1220.04 5563.18 1464.05 5573.18 1217.04 5584.18 1477.05 5595.18 926.03 5605.18 870.029 5616.18 986.032 5627.18 1104.04 5637.19 1352.04 5648.19 961.031 5659.19 883.029 5669.19 806.026 5680.19 916.03 5691.19 1443.05 5701.19 1128.04 5712.19 1391.05 5723.19 1026.03 5733.19 1054.03 5744.19 1108.04 5754.19 1471.05 5765.19 1985.07 5776.19 1802.06 5786.19 1749.06 5797.19 1478.05 5808.19 1336.04 5818.19 1344.04 5829 1513.05" stroke="#cd4f64" stroke-width="10.3125" stroke-linecap="round" stroke-linejoin="round" stroke-miterlimit="10" stroke-opacity="1" fill="none" fill-rule="nonzero"/></g><g><text fill="#595959" fill-opacity="1" font-family="Lora,serif" font-style="normal" font-variant="normal" font-weight="400" font-stretch="normal" font-size="41" text-anchor="start" direction="ltr" writing-mode="lr-tb" unicode-bidi="normal" text-decoration="none" transform="matrix(1 0 0 1 1751.18 2482)">0</text></g><g><text fill="#595959" fill-opacity="1" font-family="Lora,serif" font-style="normal" font-variant="normal" font-weight="400" font-stretch="normal" font-size="41" text-anchor="start" direction="ltr" writing-mode="lr-tb" unicode-bidi="normal" text-decoration="none" transform="matrix(1 0 0 1 1668.68 2106)">10000</text></g><g><text fill="#595959" fill-opacity="1" font-family="Lora,serif" font-style="normal" font-variant="normal" font-weight="400" font-stretch="normal" font-size="41" text-anchor="start" direction="ltr" writing-mode="lr-tb" unicode-bidi="normal" text-decoration="none" transform="matrix(1 0 0 1 1668.68 1730)">20000</text></g><g><text fill="#595959" fill-opacity="1" font-family="Lora,serif" font-style="normal" font-variant="normal" font-weight="400" font-stretch="normal" font-size="41" text-anchor="start" direction="ltr" writing-mode="lr-tb" unicode-bidi="normal" text-decoration="none" transform="matrix(1 0 0 1 1668.68 1353)">30000</text></g><g><text fill="#595959" fill-opacity="1" font-family="Lora,serif" font-style="normal" font-variant="normal" font-weight="400" font-stretch="normal" font-size="41" text-anchor="start" direction="ltr" writing-mode="lr-tb" unicode-bidi="normal" text-decoration="none" transform="matrix(1 0 0 1 1668.68 977)">40000</text></g><g><text fill="#595959" fill-opacity="1" font-family="Lora,serif" font-style="normal" font-variant="normal" font-weight="400" font-stretch="normal" font-size="41" text-anchor="start" direction="ltr" writing-mode="lr-tb" unicode-bidi="normal" text-decoration="none" transform="matrix(1 0 0 1 1668.68 601)">50000</text></g><g><text fill="#595959" fill-opacity="1" font-family="Lora,serif" font-style="normal" font-variant="normal" font-weight="400" font-stretch="normal" font-size="41" text-anchor="start" direction="ltr" writing-mode="lr-tb" unicode-bidi="normal" text-decoration="none" transform="matrix(1 0 0 1 1668.68 225)">60000</text></g><g><text fill="#595959" fill-opacity="1" font-family="Lora,serif" font-style="normal" font-variant="normal" font-weight="400" font-stretch="normal" font-size="41" text-anchor="start" direction="ltr" writing-mode="lr-tb" unicode-bidi="normal" text-decoration="none" transform="matrix(6.12323e-17 -1 1 6.12323e-17 1826.38 2571)">6-24</text></g><g><text fill="#595959" fill-opacity="1" font-family="Lora,serif" font-style="normal" font-variant="normal" font-weight="400" font-stretch="normal" font-size="41" text-anchor="start" direction="ltr" writing-mode="lr-tb" unicode-bidi="normal" text-decoration="none" transform="matrix(6.12323e-17 -1 1 6.12323e-17 1879.66 2571)">6-29</text></g><g><text fill="#595959" fill-opacity="1" font-family="Lora,serif" font-style="normal" font-variant="normal" font-weight="400" font-stretch="normal" font-size="41" text-anchor="start" direction="ltr" writing-mode="lr-tb" unicode-bidi="normal" text-decoration="none" transform="matrix(6.12323e-17 -1 1 6.12323e-17 1932.94 2571)">7-04</text></g><g><text fill="#595959" fill-opacity="1" font-family="Lora,serif" font-style="normal" font-variant="normal" font-weight="400" font-stretch="normal" font-size="41" text-anchor="start" direction="ltr" writing-mode="lr-tb" unicode-bidi="normal" text-decoration="none" transform="matrix(6.12323e-17 -1 1 6.12323e-17 1986.21 2571)">7-09</text></g><g><text fill="#595959" fill-opacity="1" font-family="Lora,serif" font-style="normal" font-variant="normal" font-weight="400" font-stretch="normal" font-size="41" text-anchor="start" direction="ltr" writing-mode="lr-tb" unicode-bidi="normal" text-decoration="none" transform="matrix(6.12323e-17 -1 1 6.12323e-17 2039.49 2571)">7-14</text></g><g><text fill="#595959" fill-opacity="1" font-family="Lora,serif" font-style="normal" font-variant="normal" font-weight="400" font-stretch="normal" font-size="41" text-anchor="start" direction="ltr" writing-mode="lr-tb" unicode-bidi="normal" text-decoration="none" transform="matrix(6.12323e-17 -1 1 6.12323e-17 2092.76 2571)">7-19</text></g><g><text fill="#595959" fill-opacity="1" font-family="Lora,serif" font-style="normal" font-variant="normal" font-weight="400" font-stretch="normal" font-size="41" text-anchor="start" direction="ltr" writing-mode="lr-tb" unicode-bidi="normal" text-decoration="none" transform="matrix(6.12323e-17 -1 1 6.12323e-17 2146.04 2571)">7-24</text></g><g><text fill="#595959" fill-opacity="1" font-family="Lora,serif" font-style="normal" font-variant="normal" font-weight="400" font-stretch="normal" font-size="41" text-anchor="start" direction="ltr" writing-mode="lr-tb" unicode-bidi="normal" text-decoration="none" transform="matrix(6.12323e-17 -1 1 6.12323e-17 2199.32 2571)">7-29</text></g><g><text fill="#595959" fill-opacity="1" font-family="Lora,serif" font-style="normal" font-variant="normal" font-weight="400" font-stretch="normal" font-size="41" text-anchor="start" direction="ltr" writing-mode="lr-tb" unicode-bidi="normal" text-decoration="none" transform="matrix(6.12323e-17 -1 1 6.12323e-17 2252.59 2571)">8-03</text></g><g><text fill="#595959" fill-opacity="1" font-family="Lora,serif" font-style="normal" font-variant="normal" font-weight="400" font-stretch="normal" font-size="41" text-anchor="start" direction="ltr" writing-mode="lr-tb" unicode-bidi="normal" text-decoration="none" transform="matrix(6.12323e-17 -1 1 6.12323e-17 2305.87 2571)">8-08</text></g><g><text fill="#595959" fill-opacity="1" font-family="Lora,serif" font-style="normal" font-variant="normal" font-weight="400" font-stretch="normal" font-size="41" text-anchor="start" direction="ltr" writing-mode="lr-tb" unicode-bidi="normal" text-decoration="none" transform="matrix(6.12323e-17 -1 1 6.12323e-17 2359.15 2571)">8-13</text></g><g><text fill="#595959" fill-opacity="1" font-family="Lora,serif" font-style="normal" font-variant="normal" font-weight="400" font-stretch="normal" font-size="41" text-anchor="start" direction="ltr" writing-mode="lr-tb" unicode-bidi="normal" text-decoration="none" transform="matrix(6.12323e-17 -1 1 6.12323e-17 2412.42 2571)">8-18</text></g><g><text fill="#595959" fill-opacity="1" font-family="Lora,serif" font-style="normal" font-variant="normal" font-weight="400" font-stretch="normal" font-size="41" text-anchor="start" direction="ltr" writing-mode="lr-tb" unicode-bidi="normal" text-decoration="none" transform="matrix(6.12323e-17 -1 1 6.12323e-17 2465.7 2571)">8-23</text></g><g><text fill="#595959" fill-opacity="1" font-family="Lora,serif" font-style="normal" font-variant="normal" font-weight="400" font-stretch="normal" font-size="41" text-anchor="start" direction="ltr" writing-mode="lr-tb" unicode-bidi="normal" text-decoration="none" transform="matrix(6.12323e-17 -1 1 6.12323e-17 2518.97 2571)">8-28</text></g><g><text fill="#595959" fill-opacity="1" font-family="Lora,serif" font-style="normal" font-variant="normal" font-weight="400" font-stretch="normal" font-size="41" text-anchor="start" direction="ltr" writing-mode="lr-tb" unicode-bidi="normal" text-decoration="none" transform="matrix(6.12323e-17 -1 1 6.12323e-17 2572.25 2571)">9-02</text></g><g><text fill="#595959" fill-opacity="1" font-family="Lora,serif" font-style="normal" font-variant="normal" font-weight="400" font-stretch="normal" font-size="41" text-anchor="start" direction="ltr" writing-mode="lr-tb" unicode-bidi="normal" text-decoration="none" transform="matrix(6.12323e-17 -1 1 6.12323e-17 2625.53 2571)">9-07</text></g><g><text fill="#595959" fill-opacity="1" font-family="Lora,serif" font-style="normal" font-variant="normal" font-weight="400" font-stretch="normal" font-size="41" text-anchor="start" direction="ltr" writing-mode="lr-tb" unicode-bidi="normal" text-decoration="none" transform="matrix(6.12323e-17 -1 1 6.12323e-17 2678.8 2571)">9-12</text></g><g><text fill="#595959" fill-opacity="1" font-family="Lora,serif" font-style="normal" font-variant="normal" font-weight="400" font-stretch="normal" font-size="41" text-anchor="start" direction="ltr" writing-mode="lr-tb" unicode-bidi="normal" text-decoration="none" transform="matrix(6.12323e-17 -1 1 6.12323e-17 2732.08 2571)">9-17</text></g><g><text fill="#595959" fill-opacity="1" font-family="Lora,serif" font-style="normal" font-variant="normal" font-weight="400" font-stretch="normal" font-size="41" text-anchor="start" direction="ltr" writing-mode="lr-tb" unicode-bidi="normal" text-decoration="none" transform="matrix(6.12323e-17 -1 1 6.12323e-17 2785.36 2571)">9-22</text></g><g><text fill="#595959" fill-opacity="1" font-family="Lora,serif" font-style="normal" font-variant="normal" font-weight="400" font-stretch="normal" font-size="41" text-anchor="start" direction="ltr" writing-mode="lr-tb" unicode-bidi="normal" text-decoration="none" transform="matrix(6.12323e-17 -1 1 6.12323e-17 2838.63 2571)">9-27</text></g><g><text fill="#595959" fill-opacity="1" font-family="Lora,serif" font-style="normal" font-variant="normal" font-weight="400" font-stretch="normal" font-size="41" text-anchor="start" direction="ltr" writing-mode="lr-tb" unicode-bidi="normal" text-decoration="none" transform="matrix(6.12323e-17 -1 1 6.12323e-17 2891.91 2592)">10-02</text></g><g><text fill="#595959" fill-opacity="1" font-family="Lora,serif" font-style="normal" font-variant="normal" font-weight="400" font-stretch="normal" font-size="41" text-anchor="start" direction="ltr" writing-mode="lr-tb" unicode-bidi="normal" text-decoration="none" transform="matrix(6.12323e-17 -1 1 6.12323e-17 2945.19 2592)">10-07</text></g><g><text fill="#595959" fill-opacity="1" font-family="Lora,serif" font-style="normal" font-variant="normal" font-weight="400" font-stretch="normal" font-size="41" text-anchor="start" direction="ltr" writing-mode="lr-tb" unicode-bidi="normal" text-decoration="none" transform="matrix(6.12323e-17 -1 1 6.12323e-17 2998.46 2592)">10-12</text></g><g><text fill="#595959" fill-opacity="1" font-family="Lora,serif" font-style="normal" font-variant="normal" font-weight="400" font-stretch="normal" font-size="41" text-anchor="start" direction="ltr" writing-mode="lr-tb" unicode-bidi="normal" text-decoration="none" transform="matrix(6.12323e-17 -1 1 6.12323e-17 3051.74 2592)">10-17</text></g><g><text fill="#595959" fill-opacity="1" font-family="Lora,serif" font-style="normal" font-variant="normal" font-weight="400" font-stretch="normal" font-size="41" text-anchor="start" direction="ltr" writing-mode="lr-tb" unicode-bidi="normal" text-decoration="none" transform="matrix(6.12323e-17 -1 1 6.12323e-17 3105.01 2592)">10-22</text></g><g><text fill="#595959" fill-opacity="1" font-family="Lora,serif" font-style="normal" font-variant="normal" font-weight="400" font-stretch="normal" font-size="41" text-anchor="start" direction="ltr" writing-mode="lr-tb" unicode-bidi="normal" text-decoration="none" transform="matrix(6.12323e-17 -1 1 6.12323e-17 3158.29 2592)">10-27</text></g><g><text fill="#595959" fill-opacity="1" font-family="Lora,serif" font-style="normal" font-variant="normal" font-weight="400" font-stretch="normal" font-size="41" text-anchor="start" direction="ltr" writing-mode="lr-tb" unicode-bidi="normal" text-decoration="none" transform="matrix(6.12323e-17 -1 1 6.12323e-17 3211.57 2592)">11-01</text></g><g><text fill="#595959" fill-opacity="1" font-family="Lora,serif" font-style="normal" font-variant="normal" font-weight="400" font-stretch="normal" font-size="41" text-anchor="start" direction="ltr" writing-mode="lr-tb" unicode-bidi="normal" text-decoration="none" transform="matrix(6.12323e-17 -1 1 6.12323e-17 3264.84 2592)">11-06</text></g><g><text fill="#595959" fill-opacity="1" font-family="Lora,serif" font-style="normal" font-variant="normal" font-weight="400" font-stretch="normal" font-size="41" text-anchor="start" direction="ltr" writing-mode="lr-tb" unicode-bidi="normal" text-decoration="none" transform="matrix(6.12323e-17 -1 1 6.12323e-17 3318.12 2592)">11-11</text></g><g><text fill="#595959" fill-opacity="1" font-family="Lora,serif" font-style="normal" font-variant="normal" font-weight="400" font-stretch="normal" font-size="41" text-anchor="start" direction="ltr" writing-mode="lr-tb" unicode-bidi="normal" text-decoration="none" transform="matrix(6.12323e-17 -1 1 6.12323e-17 3371.4 2592)">11-16</text></g><g><text fill="#595959" fill-opacity="1" font-family="Lora,serif" font-style="normal" font-variant="normal" font-weight="400" font-stretch="normal" font-size="41" text-anchor="start" direction="ltr" writing-mode="lr-tb" unicode-bidi="normal" text-decoration="none" transform="matrix(6.12323e-17 -1 1 6.12323e-17 3424.67 2592)">11-21</text></g><g><text fill="#595959" fill-opacity="1" font-family="Lora,serif" font-style="normal" font-variant="normal" font-weight="400" font-stretch="normal" font-size="41" text-anchor="start" direction="ltr" writing-mode="lr-tb" unicode-bidi="normal" text-decoration="none" transform="matrix(6.12323e-17 -1 1 6.12323e-17 3477.95 2592)">11-26</text></g><g><text fill="#595959" fill-opacity="1" font-family="Lora,serif" font-style="normal" font-variant="normal" font-weight="400" font-stretch="normal" font-size="41" text-anchor="start" direction="ltr" writing-mode="lr-tb" unicode-bidi="normal" text-decoration="none" transform="matrix(6.12323e-17 -1 1 6.12323e-17 3531.23 2592)">12-01</text></g><g><text fill="#595959" fill-opacity="1" font-family="Lora,serif" font-style="normal" font-variant="normal" font-weight="400" font-stretch="normal" font-size="41" text-anchor="start" direction="ltr" writing-mode="lr-tb" unicode-bidi="normal" text-decoration="none" transform="matrix(6.12323e-17 -1 1 6.12323e-17 3584.5 2592)">12-07</text></g><g><text fill="#595959" fill-opacity="1" font-family="Lora,serif" font-style="normal" font-variant="normal" font-weight="400" font-stretch="normal" font-size="41" text-anchor="start" direction="ltr" writing-mode="lr-tb" unicode-bidi="normal" text-decoration="none" transform="matrix(6.12323e-17 -1 1 6.12323e-17 3637.78 2592)">12-12</text></g><g><text fill="#595959" fill-opacity="1" font-family="Lora,serif" font-style="normal" font-variant="normal" font-weight="400" font-stretch="normal" font-size="41" text-anchor="start" direction="ltr" writing-mode="lr-tb" unicode-bidi="normal" text-decoration="none" transform="matrix(6.12323e-17 -1 1 6.12323e-17 3691.05 2592)">12-17</text></g><g><text fill="#595959" fill-opacity="1" font-family="Lora,serif" font-style="normal" font-variant="normal" font-weight="400" font-stretch="normal" font-size="41" text-anchor="start" direction="ltr" writing-mode="lr-tb" unicode-bidi="normal" text-decoration="none" transform="matrix(6.12323e-17 -1 1 6.12323e-17 3744.33 2592)">12-22</text></g><g><text fill="#595959" fill-opacity="1" font-family="Lora,serif" font-style="normal" font-variant="normal" font-weight="400" font-stretch="normal" font-size="41" text-anchor="start" direction="ltr" writing-mode="lr-tb" unicode-bidi="normal" text-decoration="none" transform="matrix(6.12323e-17 -1 1 6.12323e-17 3797.61 2592)">12-27</text></g><g><text fill="#595959" fill-opacity="1" font-family="Lora,serif" font-style="normal" font-variant="normal" font-weight="400" font-stretch="normal" font-size="41" text-anchor="start" direction="ltr" writing-mode="lr-tb" unicode-bidi="normal" text-decoration="none" transform="matrix(6.12323e-17 -1 1 6.12323e-17 3850.88 2571)">6-24</text></g><g><text fill="#595959" fill-opacity="1" font-family="Lora,serif" font-style="normal" font-variant="normal" font-weight="400" font-stretch="normal" font-size="41" text-anchor="start" direction="ltr" writing-mode="lr-tb" unicode-bidi="normal" text-decoration="none" transform="matrix(6.12323e-17 -1 1 6.12323e-17 3904.16 2571)">6-29</text></g><g><text fill="#595959" fill-opacity="1" font-family="Lora,serif" font-style="normal" font-variant="normal" font-weight="400" font-stretch="normal" font-size="41" text-anchor="start" direction="ltr" writing-mode="lr-tb" unicode-bidi="normal" text-decoration="none" transform="matrix(6.12323e-17 -1 1 6.12323e-17 3957.44 2571)">7-04</text></g><g><text fill="#595959" fill-opacity="1" font-family="Lora,serif" font-style="normal" font-variant="normal" font-weight="400" font-stretch="normal" font-size="41" text-anchor="start" direction="ltr" writing-mode="lr-tb" unicode-bidi="normal" text-decoration="none" transform="matrix(6.12323e-17 -1 1 6.12323e-17 4010.71 2571)">7-09</text></g><g><text fill="#595959" fill-opacity="1" font-family="Lora,serif" font-style="normal" font-variant="normal" font-weight="400" font-stretch="normal" font-size="41" text-anchor="start" direction="ltr" writing-mode="lr-tb" unicode-bidi="normal" text-decoration="none" transform="matrix(6.12323e-17 -1 1 6.12323e-17 4063.99 2571)">7-14</text></g><g><text fill="#595959" fill-opacity="1" font-family="Lora,serif" font-style="normal" font-variant="normal" font-weight="400" font-stretch="normal" font-size="41" text-anchor="start" direction="ltr" writing-mode="lr-tb" unicode-bidi="normal" text-decoration="none" transform="matrix(6.12323e-17 -1 1 6.12323e-17 4117.27 2571)">7-19</text></g><g><text fill="#595959" fill-opacity="1" font-family="Lora,serif" font-style="normal" font-variant="normal" font-weight="400" font-stretch="normal" font-size="41" text-anchor="start" direction="ltr" writing-mode="lr-tb" unicode-bidi="normal" text-decoration="none" transform="matrix(6.12323e-17 -1 1 6.12323e-17 4170.54 2571)">7-24</text></g><g><text fill="#595959" fill-opacity="1" font-family="Lora,serif" font-style="normal" font-variant="normal" font-weight="400" font-stretch="normal" font-size="41" text-anchor="start" direction="ltr" writing-mode="lr-tb" unicode-bidi="normal" text-decoration="none" transform="matrix(6.12323e-17 -1 1 6.12323e-17 4223.82 2571)">7-29</text></g><g><text fill="#595959" fill-opacity="1" font-family="Lora,serif" font-style="normal" font-variant="normal" font-weight="400" font-stretch="normal" font-size="41" text-anchor="start" direction="ltr" writing-mode="lr-tb" unicode-bidi="normal" text-decoration="none" transform="matrix(6.12323e-17 -1 1 6.12323e-17 4277.09 2571)">8-03</text></g><g><text fill="#595959" fill-opacity="1" font-family="Lora,serif" font-style="normal" font-variant="normal" font-weight="400" font-stretch="normal" font-size="41" text-anchor="start" direction="ltr" writing-mode="lr-tb" unicode-bidi="normal" text-decoration="none" transform="matrix(6.12323e-17 -1 1 6.12323e-17 4330.37 2571)">8-08</text></g><g><text fill="#595959" fill-opacity="1" font-family="Lora,serif" font-style="normal" font-variant="normal" font-weight="400" font-stretch="normal" font-size="41" text-anchor="start" direction="ltr" writing-mode="lr-tb" unicode-bidi="normal" text-decoration="none" transform="matrix(6.12323e-17 -1 1 6.12323e-17 4383.65 2571)">8-13</text></g><g><text fill="#595959" fill-opacity="1" font-family="Lora,serif" font-style="normal" font-variant="normal" font-weight="400" font-stretch="normal" font-size="41" text-anchor="start" direction="ltr" writing-mode="lr-tb" unicode-bidi="normal" text-decoration="none" transform="matrix(6.12323e-17 -1 1 6.12323e-17 4436.92 2571)">8-18</text></g><g><text fill="#595959" fill-opacity="1" font-family="Lora,serif" font-style="normal" font-variant="normal" font-weight="400" font-stretch="normal" font-size="41" text-anchor="start" direction="ltr" writing-mode="lr-tb" unicode-bidi="normal" text-decoration="none" transform="matrix(6.12323e-17 -1 1 6.12323e-17 4490.2 2571)">8-23</text></g><g><text fill="#595959" fill-opacity="1" font-family="Lora,serif" font-style="normal" font-variant="normal" font-weight="400" font-stretch="normal" font-size="41" text-anchor="start" direction="ltr" writing-mode="lr-tb" unicode-bidi="normal" text-decoration="none" transform="matrix(6.12323e-17 -1 1 6.12323e-17 4543.48 2571)">8-28</text></g><g><text fill="#595959" fill-opacity="1" font-family="Lora,serif" font-style="normal" font-variant="normal" font-weight="400" font-stretch="normal" font-size="41" text-anchor="start" direction="ltr" writing-mode="lr-tb" unicode-bidi="normal" text-decoration="none" transform="matrix(6.12323e-17 -1 1 6.12323e-17 4596.75 2571)">9-02</text></g><g><text fill="#595959" fill-opacity="1" font-family="Lora,serif" font-style="normal" font-variant="normal" font-weight="400" font-stretch="normal" font-size="41" text-anchor="start" direction="ltr" writing-mode="lr-tb" unicode-bidi="normal" text-decoration="none" transform="matrix(6.12323e-17 -1 1 6.12323e-17 4650.03 2571)">9-07</text></g><g><text fill="#595959" fill-opacity="1" font-family="Lora,serif" font-style="normal" font-variant="normal" font-weight="400" font-stretch="normal" font-size="41" text-anchor="start" direction="ltr" writing-mode="lr-tb" unicode-bidi="normal" text-decoration="none" transform="matrix(6.12323e-17 -1 1 6.12323e-17 4703.31 2571)">9-12</text></g><g><text fill="#595959" fill-opacity="1" font-family="Lora,serif" font-style="normal" font-variant="normal" font-weight="400" font-stretch="normal" font-size="41" text-anchor="start" direction="ltr" writing-mode="lr-tb" unicode-bidi="normal" text-decoration="none" transform="matrix(6.12323e-17 -1 1 6.12323e-17 4756.58 2571)">9-17</text></g><g><text fill="#595959" fill-opacity="1" font-family="Lora,serif" font-style="normal" font-variant="normal" font-weight="400" font-stretch="normal" font-size="41" text-anchor="start" direction="ltr" writing-mode="lr-tb" unicode-bidi="normal" text-decoration="none" transform="matrix(6.12323e-17 -1 1 6.12323e-17 4809.86 2571)">9-22</text></g><g><text fill="#595959" fill-opacity="1" font-family="Lora,serif" font-style="normal" font-variant="normal" font-weight="400" font-stretch="normal" font-size="41" text-anchor="start" direction="ltr" writing-mode="lr-tb" unicode-bidi="normal" text-decoration="none" transform="matrix(6.12323e-17 -1 1 6.12323e-17 4863.13 2571)">9-27</text></g><g><text fill="#595959" fill-opacity="1" font-family="Lora,serif" font-style="normal" font-variant="normal" font-weight="400" font-stretch="normal" font-size="41" text-anchor="start" direction="ltr" writing-mode="lr-tb" unicode-bidi="normal" text-decoration="none" transform="matrix(6.12323e-17 -1 1 6.12323e-17 4916.41 2592)">10-05</text></g><g><text fill="#595959" fill-opacity="1" font-family="Lora,serif" font-style="normal" font-variant="normal" font-weight="400" font-stretch="normal" font-size="41" text-anchor="start" direction="ltr" writing-mode="lr-tb" unicode-bidi="normal" text-decoration="none" transform="matrix(6.12323e-17 -1 1 6.12323e-17 4969.69 2592)">10-10</text></g><g><text fill="#595959" fill-opacity="1" font-family="Lora,serif" font-style="normal" font-variant="normal" font-weight="400" font-stretch="normal" font-size="41" text-anchor="start" direction="ltr" writing-mode="lr-tb" unicode-bidi="normal" text-decoration="none" transform="matrix(6.12323e-17 -1 1 6.12323e-17 5022.96 2592)">10-15</text></g><g><text fill="#595959" fill-opacity="1" font-family="Lora,serif" font-style="normal" font-variant="normal" font-weight="400" font-stretch="normal" font-size="41" text-anchor="start" direction="ltr" writing-mode="lr-tb" unicode-bidi="normal" text-decoration="none" transform="matrix(6.12323e-17 -1 1 6.12323e-17 5076.24 2592)">10-20</text></g><g><text fill="#595959" fill-opacity="1" font-family="Lora,serif" font-style="normal" font-variant="normal" font-weight="400" font-stretch="normal" font-size="41" text-anchor="start" direction="ltr" writing-mode="lr-tb" unicode-bidi="normal" text-decoration="none" transform="matrix(6.12323e-17 -1 1 6.12323e-17 5129.52 2592)">10-25</text></g><g><text fill="#595959" fill-opacity="1" font-family="Lora,serif" font-style="normal" font-variant="normal" font-weight="400" font-stretch="normal" font-size="41" text-anchor="start" direction="ltr" writing-mode="lr-tb" unicode-bidi="normal" text-decoration="none" transform="matrix(6.12323e-17 -1 1 6.12323e-17 5182.79 2592)">10-30</text></g><g><text fill="#595959" fill-opacity="1" font-family="Lora,serif" font-style="normal" font-variant="normal" font-weight="400" font-stretch="normal" font-size="41" text-anchor="start" direction="ltr" writing-mode="lr-tb" unicode-bidi="normal" text-decoration="none" transform="matrix(6.12323e-17 -1 1 6.12323e-17 5236.07 2592)">11-04</text></g><g><text fill="#595959" fill-opacity="1" font-family="Lora,serif" font-style="normal" font-variant="normal" font-weight="400" font-stretch="normal" font-size="41" text-anchor="start" direction="ltr" writing-mode="lr-tb" unicode-bidi="normal" text-decoration="none" transform="matrix(6.12323e-17 -1 1 6.12323e-17 5289.34 2592)">11-09</text></g><g><text fill="#595959" fill-opacity="1" font-family="Lora,serif" font-style="normal" font-variant="normal" font-weight="400" font-stretch="normal" font-size="41" text-anchor="start" direction="ltr" writing-mode="lr-tb" unicode-bidi="normal" text-decoration="none" transform="matrix(6.12323e-17 -1 1 6.12323e-17 5342.62 2592)">11-14</text></g><g><text fill="#595959" fill-opacity="1" font-family="Lora,serif" font-style="normal" font-variant="normal" font-weight="400" font-stretch="normal" font-size="41" text-anchor="start" direction="ltr" writing-mode="lr-tb" unicode-bidi="normal" text-decoration="none" transform="matrix(6.12323e-17 -1 1 6.12323e-17 5395.9 2592)">11-19</text></g><g><text fill="#595959" fill-opacity="1" font-family="Lora,serif" font-style="normal" font-variant="normal" font-weight="400" font-stretch="normal" font-size="41" text-anchor="start" direction="ltr" writing-mode="lr-tb" unicode-bidi="normal" text-decoration="none" transform="matrix(6.12323e-17 -1 1 6.12323e-17 5449.17 2592)">11-24</text></g><g><text fill="#595959" fill-opacity="1" font-family="Lora,serif" font-style="normal" font-variant="normal" font-weight="400" font-stretch="normal" font-size="41" text-anchor="start" direction="ltr" writing-mode="lr-tb" unicode-bidi="normal" text-decoration="none" transform="matrix(6.12323e-17 -1 1 6.12323e-17 5502.45 2592)">11-29</text></g><g><text fill="#595959" fill-opacity="1" font-family="Lora,serif" font-style="normal" font-variant="normal" font-weight="400" font-stretch="normal" font-size="41" text-anchor="start" direction="ltr" writing-mode="lr-tb" unicode-bidi="normal" text-decoration="none" transform="matrix(6.12323e-17 -1 1 6.12323e-17 5555.73 2592)">12-04</text></g><g><text fill="#595959" fill-opacity="1" font-family="Lora,serif" font-style="normal" font-variant="normal" font-weight="400" font-stretch="normal" font-size="41" text-anchor="start" direction="ltr" writing-mode="lr-tb" unicode-bidi="normal" text-decoration="none" transform="matrix(6.12323e-17 -1 1 6.12323e-17 5609 2592)">12-09</text></g><g><text fill="#595959" fill-opacity="1" font-family="Lora,serif" font-style="normal" font-variant="normal" font-weight="400" font-stretch="normal" font-size="41" text-anchor="start" direction="ltr" writing-mode="lr-tb" unicode-bidi="normal" text-decoration="none" transform="matrix(6.12323e-17 -1 1 6.12323e-17 5662.28 2592)">12-14</text></g><g><text fill="#595959" fill-opacity="1" font-family="Lora,serif" font-style="normal" font-variant="normal" font-weight="400" font-stretch="normal" font-size="41" text-anchor="start" direction="ltr" writing-mode="lr-tb" unicode-bidi="normal" text-decoration="none" transform="matrix(6.12323e-17 -1 1 6.12323e-17 5715.56 2592)">12-19</text></g><g><text fill="#595959" fill-opacity="1" font-family="Lora,serif" font-style="normal" font-variant="normal" font-weight="400" font-stretch="normal" font-size="41" text-anchor="start" direction="ltr" writing-mode="lr-tb" unicode-bidi="normal" text-decoration="none" transform="matrix(6.12323e-17 -1 1 6.12323e-17 5768.83 2592)">12-24</text></g><g><text fill="#595959" fill-opacity="1" font-family="Lora,serif" font-style="normal" font-variant="normal" font-weight="400" font-stretch="normal" font-size="41" text-anchor="start" direction="ltr" writing-mode="lr-tb" unicode-bidi="normal" text-decoration="none" transform="matrix(6.12323e-17 -1 1 6.12323e-17 5822.11 2592)">12-29</text></g><g><text fill="#595959" fill-opacity="1" font-family="Lora,serif" font-style="normal" font-variant="normal" font-weight="400" font-stretch="normal" font-size="46" text-anchor="start" direction="ltr" writing-mode="lr-tb" unicode-bidi="normal" text-decoration="none" transform="matrix(6.12323e-17 -1 1 6.12323e-17 1645.16 1488)">Number of trips</text></g><g><text fill="#595959" fill-opacity="1" font-family="Lora,serif" font-style="normal" font-variant="normal" font-weight="400" font-stretch="normal" font-size="46" text-anchor="start" direction="ltr" writing-mode="lr-tb" unicode-bidi="normal" text-decoration="none" transform="matrix(1 0 0 1 3777.47 2646)">Date</text></g></g></g></svg>