<?xml version="1.0" encoding="UTF-8" standalone="no"?><!DOCTYPE svg PUBLIC
    "-//W3C//DTD SVG 1.1//EN" "http://www.w3.org/Graphics/SVG/1.1/DTD/svg11.dtd">
<svg preserveAspectRatio="none"
     viewBox="0 0 2304 648" version="1.1"
     xmlns="http://www.w3.org/2000/svg"
     xml:space="preserve"
     style="fill-rule:evenodd;clip-rule:evenodd;stroke-linecap:round;stroke-linejoin:round;stroke-miterlimit:1.5;"><g transform="matrix(1,0,0,1,0,-765)"><g id="Light" transform="matrix(0.5,0,0,0.25,0,765)"><rect id="cyan" x="0" y="0" width="4608" height="2592" style="fill:var(--svg-cyan);"/><clipPath
    id="_clip1"><rect x="0" y="0" width="4608" height="2592"/></clipPath><g
    clip-path="url(#_clip1)"><g id="Layer1" transform="matrix(1,0,0,2,0,0)"><g id="blue" transform="matrix(0.999669,0,0,1,0,0)"><path d="M621,0c35.675,21.781 107.025,65.342 166,85c76,25.333 192.726,47.48 290,67c98.833,19.833 204.423,23.999 303,52c100.333,28.5 203.218,70.701 299,119c97.833,49.333 214.833,128.667 288,177c52.455,34.651 97.907,79.335 151,113c66.5,42.167 159.043,106.862 248,140c100.667,37.5 235.05,69.014 356,85c258.167,34.123 863.942,121.737 1193,119.736c204.204,-1.242 609.5,-50.113 797,-111.736c132.439,-43.527 -32,450 -32,450l-4680,0l0,-1296" style="fill:var(--svg-blue);fill-opacity:0.75;stroke:var(--svg-blue-stroke);stroke-width:4px;"/></g><g
    id="primary" transform="matrix(0.999943,0,0,0.998072,0,1.05102)"><path d="M0,545c87.638,24.779 262.915,74.336 385,134c125.5,61.333 268,170.667 368,234c77.193,48.889 159,107.333 232,146c65.756,34.829 141.333,63.167 206,86c59.409,20.977 120.48,37.41 182,51c70.167,15.5 160.148,23.966 239,42c80,18.296 324.396,64.777 241,67.777c-268.667,9.667 -1853,-9.777 -1853,-9.777" style="fill:var(--svg-primary);fill-opacity:0.75;stroke:var(--svg-primary-stroke);stroke-width:4px;"/></g><g
    id="green" transform="matrix(0.999586,0,0,0.998616,-0.0934027,0.0304542)"><path d="M4608,22c-50.222,0.832 -150.667,2.496 -223,21c-78.833,20.167 -172.202,55.245 -250,100c-93,53.5 -219,154 -308,221c-77.108,58.048 -151.5,128 -226,181c-70.625,50.243 -140.658,104.484 -221,137c-98.833,40 -262.167,82.667 -372,103c-94.274,17.453 -191.747,8.091 -287,19c-97.5,11.167 -201.822,18.456 -298,48c-99.833,30.667 -207.342,78.12 -301,136c-98.167,60.667 -223.833,176.667 -288,228c-32.727,26.182 -60.543,50.335 -97,80c-27.035,21.998 2871,0 2871,0" style="fill:var(--svg-green);fill-opacity:0.75;stroke:var(--svg-green-stroke);stroke-width:4px;"/></g><path
    id="secondary"
    d="M4608,898c-49.012,62.112 -101.768,99.854 -144,127c-80.872,51.984 -78.355,53.842 -173,96c-91.045,40.554 -182.76,84.387 -280,109c-69.927,17.7 -139.512,33.55 -210.75,43.083c-62.253,8.331 -138.86,16.413 -202.25,22.917l1010,0"
    style="fill:var(--svg-secondary);fill-opacity:0.75;stroke:var(--svg-secondary-stroke);stroke-width:4px;"/></g></g></g></g></svg>